<svg xmlns="http://www.w3.org/2000/svg" viewBox="0 0 430 92"><path fill="#0B0B0F" d="M173.35 66.52L173.35 66.52Q169.80 66.52 167.50 64.77Q165.21 63.01 164.08 59.93Q162.95 56.86 162.95 52.96L162.95 52.96Q162.95 48.93 164.10 45.89Q165.25 42.86 167.57 41.17Q169.89 39.48 173.35 39.48L173.35 39.48Q175.91 39.48 177.53 40.39Q179.16 41.30 180.11 42.86L180.11 42.86L181.15 42.86L181.15 31.33L188.17 31.33L188.17 66L181.67 66L181.67 62.62L180.63 62.62Q179.72 64.27 177.99 65.39Q176.26 66.52 173.35 66.52ZM175.35 61.58L175.35 61.58Q177.99 61.58 179.57 59.26Q181.15 56.94 181.15 53L181.15 53Q181.15 49.01 179.57 46.72Q177.99 44.42 175.35 44.42L175.35 44.42Q172.96 44.42 171.60 46.56Q170.23 48.71 170.23 53L170.23 53Q170.23 57.29 171.60 59.44Q172.96 61.58 175.35 61.58Z M199.01 66L191.99 66L191.99 40L199.01 40L199.01 66Z M209.84 66L202.82 66L202.82 40L209.32 40L209.32 43.90L210.36 43.90Q211.10 42.04 212.70 40.69Q214.30 39.35 217.34 39.35L217.34 39.35Q220.02 39.35 221.82 40.54Q223.62 41.73 224.57 43.90L224.57 43.90L225.61 43.90Q226.39 41.95 228.04 40.65Q229.69 39.35 232.59 39.35L232.59 39.35Q236.79 39.35 238.87 42.08Q240.95 44.81 240.95 49.49L240.95 49.49L240.95 66L233.93 66L233.93 50.66Q233.93 48.02 233.07 46.54Q232.20 45.07 230.25 45.07L230.25 45.07Q227.87 45.07 226.63 47.06Q225.40 49.06 225.40 51.96L225.40 51.96L225.40 66L218.38 66L218.38 50.66Q218.38 48.02 217.51 46.54Q216.64 45.07 214.69 45.07L214.69 45.07Q212.35 45.07 211.10 47.06Q209.84 49.06 209.84 51.96L209.84 51.96L209.84 66Z M255.30 66.65L255.30 66.65Q249.14 66.65 245.91 62.97Q242.69 59.28 242.69 52.96L242.69 52.96Q242.69 48.71 244.14 45.68Q245.59 42.64 248.38 41.00Q251.18 39.35 255.21 39.35L255.21 39.35Q261.02 39.35 264.12 42.86Q267.21 46.37 267.21 53.17L267.21 53.17L267.21 54.65L249.53 54.65Q249.75 57.94 251.25 59.83Q252.74 61.71 255.30 61.71L255.30 61.71Q257.33 61.71 258.57 60.50Q259.80 59.28 260.19 57.68L260.19 57.68L266.87 57.68Q266.48 60.06 265.13 62.10Q263.79 64.14 261.36 65.39Q258.94 66.65 255.30 66.65ZM249.53 50.23L249.53 50.23L260.37 50.23Q260.19 47.28 258.89 45.66Q257.59 44.03 255.17 44.03L255.17 44.03Q252.78 44.03 251.33 45.57Q249.88 47.11 249.53 50.23Z"></path><circle cx="195.5" cy="28.59" r="5.2" fill="#45E0A8" stroke="#0B0B0F" stroke-width="1"></circle></svg>